<svg width="41" height="39" viewBox="0 0 41 39" fill="none" xmlns="http://www.w3.org/2000/svg">
<path d="M4.83439 26.7941C7.67471 29.4989 11.4571 31.1226 15.4691 31.3594C19.481 31.5961 23.4455 30.4296 26.6157 28.0795L37.5239 38.4525C37.9107 38.8078 38.4288 39.0044 38.9667 38.9999C39.5045 38.9955 40.0189 38.7904 40.3992 38.4287C40.7795 38.0671 40.9953 37.5778 40.9999 37.0664C41.0046 36.555 40.7979 36.0623 40.4242 35.6944L29.5161 25.3214C32.0971 22.1716 33.3173 18.2042 32.928 14.2283C32.5386 10.2523 30.569 6.56736 27.4208 3.9249C24.2726 1.28245 20.1829 -0.118471 15.9859 0.00785737C11.7889 0.134185 7.80056 1.77824 4.83439 4.60474C3.30175 6.06145 2.08595 7.79104 1.25645 9.6947C0.426947 11.5984 0 13.6388 0 15.6994C0 17.76 0.426947 19.8005 1.25645 21.7041C2.08595 23.6078 3.30175 25.3374 4.83439 26.7941ZM7.73474 7.3667C9.76247 5.43849 12.4305 4.23851 15.2843 3.9712C18.1381 3.70389 21.0011 4.38579 23.3855 5.90072C25.7699 7.41566 27.5281 9.6699 28.3607 12.2794C29.1932 14.8888 29.0486 17.6921 27.9514 20.2115C26.8542 22.7309 24.8723 24.8107 22.3434 26.0964C19.8145 27.382 16.8951 27.7941 14.0825 27.2624C11.27 26.7307 8.73826 25.2881 6.91878 23.1804C5.0993 21.0727 4.1046 18.4302 4.10417 15.7033C4.09854 14.1538 4.41657 12.6186 5.03981 11.1868C5.66304 9.75505 6.57907 8.45524 7.73474 7.3628V7.3667ZM6.88145 15.6975C6.88145 15.1801 7.09756 14.684 7.48223 14.3182C7.8669 13.9524 8.38862 13.7469 8.93262 13.7469C9.47663 13.7469 9.99835 13.9524 10.383 14.3182C10.7677 14.684 10.9838 15.1801 10.9838 15.6975C10.9854 17.088 11.567 18.4212 12.6011 19.4045C13.6351 20.3878 15.0371 20.9409 16.4994 20.9425C17.0434 20.9425 17.5651 21.148 17.9498 21.5138C18.3344 21.8796 18.5506 22.3757 18.5506 22.893C18.5506 23.4103 18.3344 23.9064 17.9498 24.2722C17.5651 24.638 17.0434 24.8435 16.4994 24.8435C13.9504 24.8379 11.5075 23.8725 9.70506 22.1585C7.90264 20.4445 6.88741 18.1214 6.88145 15.6975Z" fill="white"/>
</svg>
