<svg width="65" height="70" viewBox="6.5 6.9 65 69.4" xmlns="http://www.w3.org/2000/svg">
  <path d="M19.0125 59.28C21.775 57.0267 24.8625 55.25 28.275 53.95C31.6875 52.65 35.2625 52 39 52C42.7375 52 46.3125 52.65 49.725 53.95C53.1375 55.25 56.225 57.0267 58.9875 59.28C60.8833 56.9111 62.3594 54.2245 63.4156 51.22C64.4719 48.2156 65 45.0089 65 41.6C65 33.9156 62.4677 27.3722 57.4031 21.97C52.3385 16.5678 46.2042 13.8667 39 13.8667C31.7958 13.8667 25.6615 16.5678 20.5969 21.97C15.5323 27.3722 13 33.9156 13 41.6C13 45.0089 13.5281 48.2156 14.5844 51.22C15.6406 54.2245 17.1167 56.9111 19.0125 59.28ZM39 45.0667C35.8042 45.0667 33.1094 43.8967 30.9156 41.5567C28.7219 39.2167 27.625 36.3422 27.625 32.9333C27.625 29.5245 28.7219 26.65 30.9156 24.31C33.1094 21.97 35.8042 20.8 39 20.8C42.1958 20.8 44.8906 21.97 47.0844 24.31C49.2781 26.65 50.375 29.5245 50.375 32.9333C50.375 36.3422 49.2781 39.2167 47.0844 41.5567C44.8906 43.8967 42.1958 45.0667 39 45.0667ZM39 76.2667C34.5042 76.2667 30.2792 75.3567 26.325 73.5367C22.3708 71.7167 18.9312 69.2467 16.0062 66.1267C13.0812 63.0067 10.7656 59.3378 9.05938 55.12C7.35312 50.9022 6.5 46.3956 6.5 41.6C6.5 36.8045 7.35312 32.2978 9.05938 28.08C10.7656 23.8622 13.0812 20.1933 16.0062 17.0733C18.9312 13.9533 22.3708 11.4833 26.325 9.66335C30.2792 7.84335 34.5042 6.93335 39 6.93335C43.4958 6.93335 47.7208 7.84335 51.675 9.66335C55.6292 11.4833 59.0688 13.9533 61.9938 17.0733C64.9188 20.1933 67.2344 23.8622 68.9406 28.08C70.6469 32.2978 71.5 36.8045 71.5 41.6C71.5 46.3956 70.6469 50.9022 68.9406 55.12C67.2344 59.3378 64.9188 63.0067 61.9938 66.1267C59.0688 69.2467 55.6292 71.7167 51.675 73.5367C47.7208 75.3567 43.4958 76.2667 39 76.2667Z" />
</svg>