<svg width="73" height="61" viewBox="0 0 73 61" xmlns="http://www.w3.org/2000/svg">
<path d="M3.62103 0.132908C2.27401 0.580952 1.05734 1.69334 0.449008 3.06836L0.0724206 3.93354L0.0289683 31.9903L0 60.047L0.304167 60.4641L0.593849 60.8658H4.99702C9.09603 60.8658 9.4002 60.8504 9.71885 60.5723C10.0665 60.2787 10.0665 60.2478 10.1099 56.5553L10.1534 52.832H36.5H62.8466L62.8901 56.5553C62.9335 60.2478 62.9335 60.2787 63.2812 60.5723C63.5998 60.8504 63.904 60.8658 68.003 60.8658H72.4062L72.6958 60.4487L73 60.047L72.971 44.5046L72.9276 28.9621L72.551 28.0969C72.073 27.0309 71.2329 26.1039 70.2191 25.5323C69.5238 25.146 69.3065 25.0997 67.9885 25.0997C66.6415 25.0997 66.4677 25.1306 65.6565 25.5786L64.802 26.0576L64.324 25.0842C63.7446 23.8946 62.2528 22.3496 61.123 21.7471C59.356 20.8201 60.196 20.851 41.2798 20.851C22.0738 20.851 23.2036 20.7892 21.2627 21.8861C20.6254 22.2415 19.9736 22.7822 19.4232 23.4157L18.5542 24.4044L18.0038 23.4311C17.3375 22.2569 15.6863 20.4802 14.5855 19.785C13.4558 19.0743 12.1232 18.5181 11.0514 18.3327L10.1534 18.1628L10.1099 11.1331L10.0665 4.08804L9.64643 3.1147C9.11052 1.89418 7.99524 0.766346 6.87996 0.318306C6.05437 -0.0215912 4.37421 -0.098835 3.62103 0.132908ZM6.03988 2.79026C6.61925 3.02201 7.09722 3.53186 7.40139 4.24254C7.6621 4.82963 7.67659 5.92656 7.67659 31.5422V58.2394H5.06944H2.4623V31.4804V4.72148L2.76647 4.05714C3.30238 2.86751 4.79425 2.28043 6.03988 2.79026ZM11.4714 21.16C13.8179 21.9325 15.8746 24.08 16.7292 26.6601C17.3085 28.4214 17.6127 28.2669 13.6151 28.2669H10.1389V24.5589C10.1389 21.4844 10.1679 20.851 10.3417 20.851C10.4575 20.851 10.9645 20.9901 11.4714 21.16ZM69.0603 27.8652C69.5817 28.1587 70.1901 28.8694 70.3784 29.3947C70.4942 29.6883 70.5377 34.3695 70.5377 44.0411V58.2394H67.9306H65.3234V44.211C65.3234 35.0493 65.3813 29.9972 65.4683 29.6265C65.6565 28.9003 66.2649 28.1278 66.8442 27.8652C67.4236 27.5871 68.5679 27.6025 69.0603 27.8652ZM17.2361 36.4552V42.0326L17.5982 42.4034L17.9458 42.7896H40.4107H62.8611V46.4976V50.2055H36.5H10.1389V40.5494V30.8933H13.6875H17.2361V36.4552Z"/>
</svg>
